<svg width="190" height="48" viewBox="0 0 190 48" fill="none" xmlns="http://www.w3.org/2000/svg">
<path d="M80.6031 31.2288C78.5011 33.3108 75.9427 34.3519 72.9279 34.3519C69.9131 34.3519 67.3547 33.3108 65.2526 31.2288C63.1506 29.1468 62.0996 26.5784 62.0996 23.5236C62.0996 20.4688 63.1506 17.9004 65.2526 15.8184C67.3547 13.7363 69.9131 12.6953 72.9279 12.6953C75.9427 12.6953 78.5011 13.7363 80.6031 15.8184C82.7051 17.9004 83.7561 20.4688 83.7561 23.5236C83.7561 26.5784 82.7051 29.1468 80.6031 31.2288ZM68.5989 27.9858C69.7598 29.1351 71.2023 29.7114 72.9279 29.7114C74.6535 29.7114 76.0959 29.1368 77.2569 27.9858C78.4178 26.8349 78.9974 25.3474 78.9974 23.5236C78.9974 21.698 78.4178 20.2106 77.2569 19.0614C76.0959 17.9121 74.6535 17.3358 72.9279 17.3358C71.2023 17.3358 69.7598 17.9104 68.5989 19.0614C67.438 20.2123 66.8583 21.6997 66.8583 23.5236C66.8583 25.3474 67.438 26.8365 68.5989 27.9858ZM100.567 33.9354H95.5089L90.7485 27.3745V33.9354H86.2862V13.1101H90.7485V25.5756L95.2107 19.0597H100.417L95.0025 26.4967L100.566 33.9338L100.567 33.9354ZM105.298 28.2823C105.814 29.6714 107.003 30.3643 108.867 30.3643C110.076 30.3643 111.029 29.9879 111.724 29.2334L115.293 31.2854C113.826 33.3275 111.664 34.3502 108.807 34.3502C106.309 34.3502 104.31 33.6073 102.813 32.1182C101.315 30.6308 100.567 28.757 100.567 26.4951C100.567 24.2531 101.307 22.3843 102.784 20.8869C104.262 19.3895 106.161 18.64 108.481 18.64C110.643 18.64 112.443 19.3895 113.881 20.8869C115.318 22.3843 116.038 24.2531 116.038 26.4951C116.038 27.1297 115.978 27.7243 115.86 28.2806H105.298V28.2823ZM105.208 24.951H111.604C111.167 23.3837 110.116 22.6008 108.451 22.6008C106.725 22.6008 105.644 23.3837 105.208 24.951ZM127.342 19.0597H132.103L127.014 33.4891C126.181 35.8293 125.085 37.5049 123.726 38.5176C122.367 39.5286 120.637 39.985 118.535 39.8851V35.7193C119.566 35.7193 120.36 35.5361 120.915 35.1697C121.469 34.8032 121.916 34.1636 122.254 33.2509L116.333 19.0597H121.241L124.544 28.164L127.341 19.0597H127.342ZM163.43 32.0766C161.903 33.594 160.039 34.3519 157.837 34.3519C155.635 34.3519 153.771 33.594 152.244 32.0766C150.716 30.5592 149.953 28.7004 149.953 26.4984C149.953 24.2964 150.716 22.4376 152.244 20.9202C153.771 19.4028 155.635 18.6449 157.837 18.6449C160.039 18.6449 161.903 19.4028 163.43 20.9202C164.957 22.4376 165.72 24.2964 165.72 26.4984C165.72 28.7004 164.956 30.5592 163.43 32.0766ZM155.397 29.0268C156.051 29.6814 156.864 30.0079 157.837 30.0079C158.81 30.0079 159.622 29.6814 160.277 29.0268C160.932 28.3722 161.258 27.5294 161.258 26.4984C161.258 25.4674 160.932 24.6246 160.277 23.97C159.622 23.3154 158.81 22.9889 157.837 22.9889C156.864 22.9889 156.051 23.3154 155.397 23.97C154.742 24.6246 154.416 25.4674 154.416 26.4984C154.416 27.5294 154.742 28.3722 155.397 29.0268ZM172.176 23.4037C172.176 23.7018 172.429 23.9433 172.934 24.1332C173.44 24.3214 174.05 24.5096 174.763 24.6979C175.477 24.8861 176.19 25.1293 176.905 25.4274C177.619 25.7255 178.229 26.2152 178.734 26.8998C179.24 27.5844 179.492 28.4422 179.492 29.4732C179.492 31.0806 178.897 32.2948 177.706 33.1176C176.517 33.9404 175.048 34.3519 173.304 34.3519C170.169 34.3519 168.037 33.1726 166.908 30.8124L170.775 28.6104C171.172 29.7814 172.015 30.366 173.304 30.366C174.375 30.366 174.911 30.0579 174.911 29.4432C174.911 29.1468 174.658 28.8986 174.153 28.7004C173.647 28.5022 173.037 28.3089 172.324 28.1207C171.61 27.9325 170.897 27.6843 170.182 27.3762C169.468 27.068 168.858 26.5883 168.354 25.9338C167.847 25.2792 167.596 24.4763 167.596 23.5236C167.596 21.9762 168.155 20.777 169.276 19.9242C170.397 19.0714 171.781 18.6449 173.427 18.6449C174.656 18.6449 175.777 18.9181 176.79 19.4628C177.801 20.0074 178.616 20.7969 179.23 21.828L175.423 23.88C174.946 23.0072 174.282 22.5708 173.429 22.5708C172.596 22.5708 172.18 22.849 172.18 23.4037H172.176ZM189.997 23.3437H186.932V28.6104C186.932 29.2051 187.17 29.5815 187.647 29.7414C188.123 29.8996 188.906 29.9496 189.997 29.8896V33.9354C187.16 34.2336 185.196 33.9604 184.105 33.1176C183.014 32.2748 182.47 30.7724 182.47 28.6104V23.3437H180.09V19.0597H182.47V16.2331L186.932 14.8939V19.0597H189.997V23.3437ZM141.175 13.1084C143.219 13.1084 144.943 13.803 146.352 15.1904C147.76 16.5796 148.464 18.2652 148.464 20.2473C148.464 22.2311 147.76 23.9167 146.352 25.3058C144.943 26.6949 143.219 27.3878 141.175 27.3878H138.052V33.9338H133.292V13.1084H141.175ZM141.175 22.9256C141.908 22.9256 142.515 22.6674 142.989 22.1528C143.466 21.6364 143.704 21.0018 143.704 20.249C143.704 19.4944 143.466 18.8598 142.989 18.3451C142.513 17.8305 141.908 17.5723 141.175 17.5723H138.052V22.9273H141.175V22.9256Z" fill="#2B2A29"/>
<path fill-rule="evenodd" clip-rule="evenodd" d="M23.8852 0C37.077 0 47.7703 10.6934 47.7703 23.8852C47.7703 37.077 37.077 47.7703 23.8852 47.7703C10.6934 47.7703 0 37.077 0 23.8852C0 10.6934 10.6934 0 23.8852 0ZM23.8852 9.30089C31.9401 9.30089 38.4694 15.8302 38.4694 23.8852C38.4694 31.9401 31.9401 38.4694 23.8852 38.4694C15.8302 38.4694 9.30089 31.9401 9.30089 23.8852C9.30089 15.8302 15.8302 9.30089 23.8852 9.30089Z" fill="url(#paint0_linear_179_3556)"/>
<path opacity="0.2" fill-rule="evenodd" clip-rule="evenodd" d="M40.4714 41.0714C38.4743 42.9985 36.1408 44.5825 33.5707 45.7235L26.6816 38.1998C29.5832 37.6369 32.1766 36.2144 34.1886 34.209L40.4731 41.0714H40.4714Z" fill="#1F2428"/>
<path fill-rule="evenodd" clip-rule="evenodd" d="M51.0881 0.253619L42.3568 8.74168C40.2765 6.20659 37.6831 4.10622 34.7366 2.60049L37.1684 0.251953H51.0881V0.253619ZM35.6493 15.2626L27.3645 23.316L49.8855 47.1778H36.5921L13.693 22.9162L27.3628 9.7194C30.7391 10.5456 33.6523 12.546 35.6477 15.2626H35.6493Z" fill="url(#paint1_linear_179_3556)"/>
<path opacity="0.2" fill-rule="evenodd" clip-rule="evenodd" d="M26.6083 10.4483C29.9795 11.2844 32.8877 13.2915 34.8748 16.0148L35.6494 15.262C33.6539 12.5453 30.7407 10.5449 27.3645 9.71875L26.6083 10.4483Z" fill="#1F2428"/>
<defs>
<linearGradient id="paint0_linear_179_3556" x1="0.612057" y1="47.7703" x2="54.7001" y2="37.8739" gradientUnits="userSpaceOnUse">
<stop stop-color="#5B52A3"/>
<stop offset="1" stop-color="#40B8EA"/>
</linearGradient>
<linearGradient id="paint1_linear_179_3556" x1="13.693" y1="22.9162" x2="49.9521" y2="22.9162" gradientUnits="userSpaceOnUse">
<stop stop-color="#54E1AB"/>
<stop offset="1" stop-color="#7EEEC1"/>
</linearGradient>
</defs>
</svg>
