<svg width="26" height="26" viewBox="0 0 26 26" fill="none" xmlns="http://www.w3.org/2000/svg">
<path d="M12.4258 7.25477L14.4366 5.24393C14.8515 4.82865 15.3441 4.49919 15.8864 4.27435C16.4286 4.04952 17.0099 3.93373 17.5969 3.93359C18.1839 3.93346 18.7652 4.04898 19.3076 4.27356C19.8499 4.49814 20.3427 4.82737 20.7578 5.24246C21.1729 5.65755 21.5021 6.15035 21.7267 6.69271C21.9513 7.23507 22.0668 7.81636 22.0667 8.40338C22.0666 8.9904 21.9508 9.57164 21.7259 10.1139C21.5011 10.6562 21.1716 11.1488 20.7564 11.5637L17.8837 14.4363C17.4688 14.8513 16.9761 15.1804 16.434 15.405C15.8918 15.6296 15.3107 15.7452 14.7238 15.7452C14.137 15.7452 13.5559 15.6296 13.0137 15.405C12.4716 15.1804 11.9789 14.8513 11.564 14.4363" stroke="white" stroke-linecap="round" stroke-linejoin="round"/>
<path d="M13.5745 18.7453L11.5637 20.7561C11.1488 21.1714 10.6562 21.5009 10.1139 21.7257C9.57164 21.9505 8.9904 22.0663 8.40338 22.0665C7.81636 22.0666 7.23507 21.9511 6.69271 21.7265C6.15035 21.5019 5.65755 21.1727 5.24246 20.7576C4.82737 20.3425 4.49814 19.8497 4.27356 19.3074C4.04898 18.765 3.93346 18.1837 3.93359 17.5967C3.93373 17.0097 4.04952 16.4284 4.27435 15.8862C4.49919 15.3439 4.82865 14.8513 5.24393 14.4364L8.11655 11.5637C8.53151 11.1488 9.02415 10.8196 9.56632 10.595C10.1085 10.3705 10.6896 10.2549 11.2764 10.2549C11.8633 10.2549 12.4444 10.3705 12.9866 10.595C13.5287 10.8196 14.0214 11.1488 14.4363 11.5637" stroke="white" stroke-linecap="round" stroke-linejoin="round"/>
</svg>
