<svg width="402" height="405" viewBox="0 0 402 405" fill="none" xmlns="http://www.w3.org/2000/svg">
<g clip-path="url(#clip0_37_712)">
<path opacity="0.1" d="M207.256 0.0884242C104.345 -2.91279 15.2033 70.8367 1.73461 167.609C-12.9896 273.409 68.0558 368.607 167.773 383.857C291.809 402.822 412.119 293.106 401.319 174.082C393.185 84.4044 311.865 3.13939 207.256 0.0884242Z" fill="#F4F7FA"/>
<path d="M331.5 203.259C320.941 196.627 304.782 206.212 303.354 207.08C288.027 216.419 290.273 229.623 278.319 233.676C265.677 237.96 258.084 224.916 246.586 229.531C234.996 234.189 231.089 252.126 228.937 262.018C224.769 281.162 229.591 290.994 222.361 296.988C215.838 302.399 208.999 296.804 202.112 301.075C188.867 309.287 185.991 347.436 206.992 369.031C225.205 387.748 254.541 387.032 273.77 377.153C287.044 370.335 303.521 355.036 303.284 337.763C303.1 324.379 293.032 320.832 295.125 310.598C298.682 293.198 330.508 290.191 330.059 278.739C329.749 270.816 314.361 268.255 314.794 260.585C315.188 253.624 327.977 253.662 335.307 242.908C343.383 231.08 342.227 209.997 331.5 203.259Z" fill="url(#paint0_linear_37_712)"/>
<g style="mix-blend-mode:soft-light">
<g style="mix-blend-mode:soft-light">
<g style="mix-blend-mode:soft-light">
<path d="M209.346 392.563L208.474 392.173C223.513 358.379 239.578 327.368 256.227 300.017C269.551 278.126 283.269 258.509 297.02 241.706C320.443 213.078 336.031 202.418 336.185 202.314L336.718 203.106C336.565 203.21 321.06 213.822 297.714 242.365C276.165 268.719 243.343 316.162 209.346 392.563Z" fill="white"/>
</g>
<g style="mix-blend-mode:soft-light">
<path d="M294.871 244.537C294.551 214.924 307.919 193.098 308.055 192.881L308.864 193.385C308.726 193.601 295.507 215.205 295.825 244.527L294.871 244.537Z" fill="white"/>
</g>
<g style="mix-blend-mode:soft-light">
<path d="M253.762 303.895C243.414 273.345 242.37 252.752 243.322 240.858C244.361 227.901 247.827 222.272 247.975 222.038L248.782 222.548C248.746 222.603 245.272 228.277 244.266 241.04C243.336 252.834 244.386 273.259 254.665 303.588L253.762 303.895Z" fill="white"/>
</g>
<g style="mix-blend-mode:soft-light">
<path d="M221.906 363.801C192.283 315.834 196.494 282.847 196.54 282.52L197.485 282.658C197.472 282.741 196.407 291.294 199.191 305.838C201.643 318.646 207.715 339.012 222.717 363.304L221.906 363.801Z" fill="white"/>
</g>
<g style="mix-blend-mode:soft-light">
<path d="M269.206 297.137C265.845 297.14 262.486 296.948 259.146 296.563L259.257 295.615C281.459 298.194 302.071 291.5 315.451 285.429C329.955 278.849 339.31 271.574 339.403 271.501L339.992 272.254C339.898 272.327 330.453 279.673 315.847 286.3C304.4 291.493 287.7 297.137 269.206 297.137Z" fill="white"/>
</g>
<g style="mix-blend-mode:soft-light">
<path d="M233.297 353.074C231.512 353.074 229.704 353.01 227.873 352.881L227.941 351.927C251.185 353.597 270.524 344.062 282.657 335.772C295.811 326.79 303.552 317.295 303.629 317.201L304.364 317.809C304.287 317.904 296.458 327.503 283.188 336.569C271.893 344.288 254.391 353.074 233.297 353.074Z" fill="white"/>
</g>
</g>
</g>
<path d="M181.542 381.625C208.267 354.147 204.599 305.604 187.751 295.155C178.989 289.72 170.287 296.839 161.985 289.955C152.788 282.326 158.923 269.817 153.62 245.462C150.88 232.875 145.911 210.052 131.161 204.125C116.536 198.248 106.878 214.847 90.7866 209.395C75.5753 204.239 78.434 187.438 58.9305 175.555C57.1162 174.449 36.5544 162.258 23.1188 170.691C9.46934 179.258 7.99719 206.085 18.2622 221.147C27.589 234.826 43.8627 234.781 44.3635 243.638C44.9154 253.399 25.3346 256.657 24.94 266.738C24.3688 281.311 64.8646 285.137 69.3914 307.278C72.0543 320.299 59.2451 324.813 59.0105 341.842C58.7084 363.822 79.6744 383.295 96.5634 391.963C121.041 404.53 158.378 405.441 181.542 381.625Z" fill="url(#paint1_linear_37_712)"/>
<g style="mix-blend-mode:soft-light">
<g style="mix-blend-mode:soft-light">
<path d="M169.381 404.999L170.485 404.504C151.354 361.503 130.914 322.051 109.727 287.239C92.7744 259.386 75.3114 234.424 57.8222 213.049C28.0205 176.623 8.1831 163.058 7.9858 162.925L7.3125 163.934C7.50842 164.065 27.2369 177.569 56.942 213.888C84.3568 247.41 126.122 307.778 169.381 404.999Z" fill="white"/>
</g>
<g style="mix-blend-mode:soft-light">
<path d="M60.5556 216.642C60.9696 178.961 43.9522 151.187 43.7798 150.911L42.7505 151.555C42.9202 151.831 59.7458 179.317 59.3429 216.636L60.5556 216.642Z" fill="white"/>
</g>
<g style="mix-blend-mode:soft-light">
<path d="M112.86 292.169C126.038 253.296 127.36 227.095 126.147 211.965C124.827 195.479 120.416 188.316 120.23 188.019L119.202 188.667C119.247 188.738 123.668 195.957 124.948 212.197C126.131 227.204 124.794 253.193 111.715 291.787L112.86 292.169Z" fill="white"/>
</g>
<g style="mix-blend-mode:soft-light">
<path d="M153.401 368.397C191.093 307.361 185.736 265.388 185.678 264.971L184.475 265.141C184.49 265.244 185.846 276.129 182.303 294.636C179.183 310.933 171.457 336.846 152.363 367.758L153.401 368.397Z" fill="white"/>
</g>
<g style="mix-blend-mode:soft-light">
<path d="M93.2133 283.572C97.4903 283.575 101.764 283.331 106.013 282.841L105.875 281.634C77.624 284.915 51.3971 276.398 34.3729 268.674C15.9166 260.302 4.01935 251.044 3.8938 250.951L3.146 251.909C3.26465 252.001 15.2874 261.349 33.8721 269.782C48.428 276.388 69.6824 283.572 93.2133 283.572Z" fill="white"/>
</g>
<g style="mix-blend-mode:soft-light">
<path d="M138.907 354.748C141.175 354.748 143.474 354.666 145.805 354.502L145.718 353.288C116.141 355.409 91.533 343.284 76.0955 332.739C59.3568 321.305 49.5085 309.228 49.4105 309.11L48.4668 309.874C48.5661 309.997 58.5263 322.212 75.4125 333.746C89.796 343.568 112.066 354.748 138.907 354.748Z" fill="white"/>
</g>
</g>
<path d="M209.665 100.53C220.82 194.951 231.974 288.386 243.13 380.833C243.631 384.978 240.771 388.644 236.769 388.985C191.939 393.245 147.108 397.598 102.276 402.044C94.2732 402.433 89.8871 397.957 89.3725 393.477C77.8906 293.678 66.4086 192.833 54.9267 90.9431C54.4121 86.3666 58.2822 82.4327 66.2803 82.8237C111.331 86.0424 156.384 89.2172 201.436 92.3483C205.464 92.615 209.164 96.2933 209.665 100.53Z" fill="#26264F"/>
<path d="M215.892 100.337C227.113 195.168 238.338 289.002 249.566 381.838C250.07 385.997 247.193 389.683 243.167 390.028C196.616 393.977 150.064 398.004 103.512 402.108C99.2635 402.486 95.3589 399.117 94.8415 394.614C83.2878 294.358 71.7337 193.043 60.1791 90.6713C59.6603 86.0755 62.7398 82.5478 67.0169 82.838C113.881 85.97 160.745 89.0633 207.609 92.118C211.664 92.3888 215.387 96.0823 215.892 100.337Z" fill="url(#paint2_linear_37_712)"/>
<path d="M213.186 115.85C223.58 203.711 233.977 290.717 244.377 376.867C244.849 380.761 242.16 384.199 238.397 384.505C194.615 388.092 150.836 391.746 107.06 395.467C103.105 395.807 99.4718 392.652 98.9848 388.47C88.3022 295.866 77.6186 202.359 66.9342 107.949C66.4526 103.677 69.3183 100.371 73.2988 100.607C117.35 103.176 161.402 105.718 205.454 108.233C209.239 108.45 212.717 111.881 213.186 115.85Z" fill="url(#paint3_linear_37_712)"/>
<path style="mix-blend-mode:multiply" opacity="0.3" d="M205.454 108.234C161.924 105.746 118.394 103.235 74.8633 100.699C76.3263 109.255 78.8958 117.585 82.5069 125.477C96.9469 156.843 118.159 158.577 126.457 185.916C135.012 214.082 115.726 222.896 125.145 248.326C135.368 275.92 160.437 271.927 173.688 302.196C185.107 328.286 170.405 340.212 182.214 356.066C195.159 373.445 219.105 367.553 243.96 373.438C233.701 288.413 223.441 202.55 213.182 115.85C212.717 111.881 209.239 108.45 205.454 108.234Z" fill="url(#paint4_linear_37_712)"/>
<path d="M141.873 96.6526C142.049 98.1725 141.024 99.3498 139.582 99.2655C138.141 99.1813 136.823 97.8644 136.649 96.3306C136.475 94.7969 137.498 93.6237 138.941 93.7177C140.384 93.8116 141.696 95.1216 141.873 96.6526Z" fill="#DE8BDF"/>
<path d="M157.599 181.558C163.163 181.558 167.674 176.229 167.674 169.654C167.674 163.08 163.163 157.75 157.599 157.75C152.035 157.75 147.524 163.08 147.524 169.654C147.524 176.229 152.035 181.558 157.599 181.558Z" fill="url(#paint5_linear_37_712)"/>
<path d="M197.706 181.558C203.27 181.558 207.781 176.229 207.781 169.654C207.781 163.08 203.27 157.75 197.706 157.75C192.142 157.75 187.631 163.08 187.631 169.654C187.631 176.229 192.142 181.558 197.706 181.558Z" fill="url(#paint6_linear_37_712)"/>
<path d="M177.541 181.558C183.185 181.558 187.76 176.229 187.76 169.654C187.76 163.08 183.185 157.75 177.541 157.75C171.897 157.75 167.321 163.08 167.321 169.654C167.321 176.229 171.897 181.558 177.541 181.558Z" fill="#D8DEE8"/>
<path d="M237.811 181.558C243.375 181.558 247.886 176.229 247.886 169.654C247.886 163.08 243.375 157.75 237.811 157.75C232.247 157.75 227.736 163.08 227.736 169.654C227.736 176.229 232.247 181.558 237.811 181.558Z" fill="url(#paint7_linear_37_712)"/>
<path d="M217.648 181.558C223.292 181.558 227.867 176.229 227.867 169.654C227.867 163.08 223.292 157.75 217.648 157.75C212.004 157.75 207.428 163.08 207.428 169.654C207.428 176.229 212.004 181.558 217.648 181.558Z" fill="#D8DEE8"/>
<path d="M257.753 181.558C263.397 181.558 267.973 176.229 267.973 169.654C267.973 163.08 263.397 157.75 257.753 157.75C252.109 157.75 247.534 163.08 247.534 169.654C247.534 176.229 252.109 181.558 257.753 181.558Z" fill="#D8DEE8"/>
<path d="M137.434 181.558C143.078 181.558 147.654 176.229 147.654 169.654C147.654 163.08 143.078 157.75 137.434 157.75C131.79 157.75 127.215 163.08 127.215 169.654C127.215 176.229 131.79 181.558 137.434 181.558Z" fill="#D8DEE8"/>
<path d="M64.9126 99.4287L127.434 171.267H288.803L210.61 108.528L64.9126 99.4287Z" fill="url(#paint8_linear_37_712)"/>
<path d="M64.9126 99.4287L127.434 171.267H147.654L81.7312 100.479L64.9126 99.4287Z" fill="#F4F7FA"/>
<path d="M99.7891 101.606L167.578 171.267H187.551L117.981 102.743L99.7891 101.606Z" fill="#F4F7FA"/>
<path d="M136.307 103.888L207.572 171.267H227.641L154.772 105.04L136.307 103.888Z" fill="#F4F7FA"/>
<path d="M192.127 107.374L173.378 106.202L247.758 171.267H267.926L192.127 107.374Z" fill="#F4F7FA"/>
<path d="M267.939 171.267C268.607 177.071 272.811 181.559 277.912 181.559C283.013 181.559 287.217 177.076 287.884 171.267H267.939Z" fill="url(#paint9_linear_37_712)"/>
<path opacity="0.63" d="M191.249 216.143C182.522 196 160.382 186.217 141.797 194.293C123.212 202.37 115.223 225.245 123.951 245.389C132.679 265.532 154.817 275.314 173.401 267.236C191.984 259.158 199.975 236.284 191.249 216.143ZM163.845 244.851L164.59 250.525L159.147 251.24L158.457 245.956C154.714 246.28 150.972 245.755 148.701 244.808L149.512 238.08C152.014 239.048 155.445 239.79 159.055 239.314C162.228 238.9 164.226 237.388 163.933 235.169C163.657 233.055 161.704 231.954 157.411 231.104C151.203 229.884 146.788 227.635 146.077 222.24C145.435 217.345 148.376 213.054 154.165 211.103L153.475 205.819L158.918 205.103L159.559 209.997C163.304 209.674 165.906 210.124 167.856 210.772L167.069 217.267C165.552 216.852 162.823 215.901 158.823 216.428C155.212 216.903 154.25 218.615 154.455 220.173C154.696 222.008 156.793 222.919 161.748 224.079C168.664 225.545 171.731 228.255 172.388 233.259C173.031 238.206 170.087 242.893 163.845 244.851Z" fill="#F4F7FA"/>
<g opacity="0.63">
<path opacity="0.63" d="M211.188 325.516L126.125 328.097C124.647 328.143 123.205 327.644 122.069 326.696C120.933 325.748 120.184 324.417 119.962 322.953L116.513 300.241C116.383 299.39 116.437 298.521 116.669 297.692C116.901 296.864 117.307 296.094 117.86 295.435C118.413 294.776 119.099 294.242 119.874 293.869C120.649 293.497 121.494 293.294 122.353 293.274L207.508 291.298C208.979 291.264 210.412 291.768 211.538 292.715C212.665 293.663 213.408 294.989 213.629 296.445L216.984 318.554C217.113 319.401 217.06 320.265 216.83 321.09C216.6 321.916 216.198 322.682 215.65 323.34C215.102 323.998 214.421 324.533 213.652 324.908C212.883 325.283 212.043 325.49 211.188 325.516Z" fill="#F4F7FA"/>
<path opacity="0.63" d="M214.046 344.187L129.033 347.103C127.551 347.154 126.103 346.658 124.962 345.709C123.821 344.761 123.068 343.426 122.845 341.958L122.813 341.744C122.685 340.897 122.737 340.032 122.967 339.207C123.197 338.382 123.599 337.614 124.146 336.956C124.694 336.298 125.375 335.763 126.144 335.388C126.913 335.013 127.753 334.805 128.608 334.779L213.653 332.08C215.132 332.033 216.577 332.531 217.715 333.479C218.852 334.428 219.603 335.761 219.825 337.226C219.953 338.071 219.901 338.935 219.672 339.758C219.443 340.582 219.042 341.348 218.496 342.006C217.95 342.663 217.271 343.198 216.505 343.574C215.738 343.95 214.9 344.159 214.046 344.187Z" fill="#F4F7FA"/>
</g>
<path d="M263.921 245.181C274.441 240.035 294.964 258.674 304.951 276.528C308.93 283.643 313.603 291.996 312.456 301.926C310.424 319.532 290.923 334.973 264.084 340.13C263.328 337.427 262.572 334.724 261.817 332.021C264.752 328.959 269.14 324.541 274.749 319.478C283.365 311.7 285.135 311.187 285.548 308.725C286.901 300.681 266.249 293.948 258.902 279.807C252.587 267.65 255.837 249.134 263.921 245.181Z" fill="url(#paint10_linear_37_712)"/>
<path d="M277.743 386.679C277.743 386.679 276.016 390.948 276.875 392.621C277.735 394.294 281.879 393.236 287.724 394.131C293.568 395.027 297.6 396.393 297.924 395.181C298.248 393.97 286.137 387.568 285.169 386.682C284.2 385.796 277.743 386.679 277.743 386.679Z" fill="url(#paint11_linear_37_712)"/>
<path d="M279.29 380.299L283.377 386.679C283.377 386.679 281.494 388.54 278.293 387.848L273.798 381.804L279.29 380.299Z" fill="url(#paint12_linear_37_712)"/>
<path style="mix-blend-mode:multiply" opacity="0.3" d="M258.902 279.81C252.587 267.65 255.837 249.134 263.921 245.184C266.04 244.147 268.569 244.089 271.333 244.783C269.877 248.991 270.166 252.033 270.884 254.189C274.087 263.8 287.931 262.706 292.256 273.647C294.991 280.556 290.643 283.995 294.523 289.537C298.545 295.283 305.122 294.318 307.153 299.916C308.67 304.085 305.682 306.456 306.828 309.97C307.149 310.948 307.779 311.93 308.839 312.864C301.725 325.676 285.173 336.078 264.084 340.131C263.328 337.428 262.572 334.726 261.817 332.023C264.752 328.961 269.14 324.542 274.749 319.479C283.365 311.701 285.135 311.188 285.548 308.726C286.901 300.681 266.249 293.948 258.902 279.81Z" fill="url(#paint13_linear_37_712)"/>
<path d="M271.099 248.996C270.644 267.423 270.899 287.348 272.232 308.559C273.797 333.473 276.73 358.282 281.017 382.873L275.825 384.531C258.026 367.16 252.697 351.88 251.238 340.888C250.206 333.118 251.767 332.451 250.376 322.726C247.726 304.21 240.815 297.865 235.961 280.528C234.138 274.021 232.11 264.191 232.236 251.372L271.099 248.996Z" fill="url(#paint14_linear_37_712)"/>
<path d="M283.852 215.99C283.528 216.064 282.125 216.531 281.57 222.403C280.232 236.56 287.592 242.292 285.779 249.969C284.04 257.339 275.168 260.914 266.037 264.595C259.933 267.055 241.065 274.66 230.082 266.107C225.463 262.514 224.958 258.162 221.666 242.185C213.292 201.597 210.049 198.107 213.57 189.323C219.618 174.234 235.811 167.984 238.505 166.938C267.232 155.852 301.156 176.226 314.561 199.635C316.327 202.716 326.868 221.124 319.462 229.855C314.981 235.137 304.684 235.99 297.889 232.387C288.805 227.579 286.876 215.295 283.852 215.99Z" fill="url(#paint15_linear_37_712)"/>
<path d="M315.249 226.726C315.344 226.726 315.438 226.707 315.525 226.668C315.68 226.596 315.802 226.465 315.862 226.304C315.921 226.143 315.915 225.965 315.845 225.808C315.599 225.268 309.669 212.523 295.966 207.493C295.805 207.434 295.627 207.441 295.471 207.514C295.315 207.586 295.194 207.717 295.135 207.879C295.076 208.04 295.084 208.218 295.156 208.374C295.228 208.53 295.359 208.651 295.52 208.711C308.701 213.547 314.607 226.22 314.666 226.347C314.718 226.459 314.799 226.554 314.903 226.621C315.006 226.689 315.126 226.725 315.249 226.726Z" fill="url(#paint16_linear_37_712)"/>
<path style="mix-blend-mode:multiply" opacity="0.3" d="M232.343 184.133C234.156 189.077 228.716 193.36 231.047 198.727C234.39 206.419 247.671 202.472 252.42 210.078C258.048 219.094 245.16 233.881 250.478 238.942C252.901 241.249 255.7 238.296 262.783 239.91C272.872 242.219 275.902 250.201 280.594 248.991C282.069 248.611 283.858 247.269 285.364 243.139C286.019 245.43 286.33 247.606 285.778 249.963C284.038 257.334 275.166 260.908 266.034 264.589C259.932 267.049 241.061 274.654 230.08 266.101C225.461 262.509 224.956 258.156 221.664 242.18C213.291 201.592 210.047 198.101 213.568 189.317C215.488 184.525 218.433 180.629 221.642 177.504C228.557 179.04 231.398 181.546 232.343 184.133Z" fill="url(#paint17_linear_37_712)"/>
<path d="M249.714 215.143C248.938 215.849 241.08 222.781 231.626 220.414C223.392 218.353 218.338 210.335 217.452 203.59C215.345 187.547 236.216 174.08 233.643 170.833C232.111 168.899 223.894 172.645 218.423 176.023C212.744 179.529 197.398 189.004 194.127 207.595C193.851 209.176 190.24 231.341 202.875 240.497C214.557 248.962 237.441 244.356 252.938 224.33L249.714 215.143Z" fill="url(#paint18_linear_37_712)"/>
<path d="M300.385 200.496L291.028 230.431C290.878 230.91 290.584 231.33 290.185 231.635C289.786 231.939 289.303 232.112 288.802 232.13L238.443 233.911C238.074 233.924 237.708 233.853 237.371 233.703C237.034 233.553 236.736 233.327 236.5 233.044C236.263 232.761 236.094 232.427 236.006 232.068C235.918 231.71 235.913 231.336 235.991 230.975L242.506 200.91C242.621 200.382 242.909 199.907 243.324 199.561C243.739 199.215 244.258 199.018 244.798 199.001L297.999 197.343C298.386 197.33 298.77 197.411 299.119 197.578C299.468 197.745 299.772 197.993 300.006 198.302C300.239 198.611 300.396 198.971 300.462 199.353C300.528 199.734 300.501 200.126 300.385 200.496Z" fill="#D8DEE8"/>
<path d="M299.936 201.476L290.854 230.53C290.709 230.995 290.423 231.404 290.037 231.699C289.65 231.994 289.181 232.162 288.695 232.179L239.823 233.907C239.465 233.921 239.108 233.852 238.781 233.707C238.454 233.561 238.164 233.342 237.934 233.067C237.705 232.792 237.541 232.467 237.456 232.119C237.37 231.77 237.366 231.407 237.443 231.057L243.763 201.878C243.874 201.364 244.152 200.903 244.555 200.567C244.958 200.231 245.462 200.04 245.986 200.025L297.62 198.423C297.995 198.411 298.367 198.488 298.706 198.649C299.044 198.81 299.339 199.05 299.566 199.349C299.793 199.648 299.945 199.997 300.01 200.367C300.074 200.737 300.049 201.117 299.936 201.476Z" fill="url(#paint19_linear_37_712)"/>
<path d="M237.449 231.057L243.481 203.211C244.504 205.635 245.826 206.859 247.089 207.483C250.725 209.28 253.557 206.041 261.498 206.349C264.534 206.466 270.742 206.707 274.614 210.728C278.249 214.506 276.704 218.387 278.985 223.7C280.137 226.382 282.274 229.422 286.392 232.267L239.829 233.914C239.47 233.928 239.113 233.859 238.785 233.713C238.457 233.567 238.167 233.348 237.937 233.072C237.707 232.796 237.543 232.47 237.459 232.121C237.374 231.772 237.371 231.408 237.449 231.057Z" fill="url(#paint20_linear_37_712)"/>
<path d="M268.114 164.06C267.986 164.506 267.95 164.973 268.007 165.433C268.064 165.894 268.214 166.338 268.447 166.739C268.679 167.141 268.991 167.491 269.362 167.768C269.733 168.046 270.157 168.246 270.607 168.355C272.908 168.908 275.712 169.681 276.921 170.374C279.142 171.647 270.16 170.177 261.889 169.982C256.727 169.862 252.871 169.281 250.702 168.863C250.58 168.836 250.469 168.77 250.388 168.674C250.307 168.579 250.259 168.459 250.251 168.334C250.244 168.209 250.278 168.084 250.348 167.98C250.418 167.876 250.52 167.798 250.639 167.757C252.708 167.084 256.062 166.099 258.9 165.736C262.414 165.293 266.182 157.528 266.182 157.528L269.194 160.268L268.114 164.06Z" fill="url(#paint21_linear_37_712)"/>
<path d="M298.024 210.03L297.453 209.094C297.209 208.155 296.632 207.336 295.83 206.79C295.028 206.245 294.055 206.009 293.093 206.128L290.09 206.499C289.868 206.527 289.655 206.6 289.463 206.715C289.272 206.829 289.106 206.982 288.976 207.164C288.847 207.346 288.756 207.552 288.71 207.771C288.664 207.989 288.664 208.215 288.71 208.434C288.986 209.777 289.707 211.382 291.552 211.258C294.687 211.045 296.69 215.619 296.69 215.619L297.892 213.924C298.292 213.359 298.517 212.689 298.541 211.996C298.564 211.304 298.385 210.621 298.024 210.03Z" fill="url(#paint22_linear_37_712)"/>
<path d="M274.824 160.08C277.422 159.695 280.331 157.509 280.274 155.701C280.197 153.214 274.529 151.859 271.667 151.172C268.806 150.485 267.579 150.732 266.757 151.358C265.935 151.984 265.366 153.145 265.185 154.133C265.087 154.672 265.082 155.413 265.174 156.888C265.256 158.2 265.232 158.142 265.265 158.528C265.347 159.458 265.601 161.093 266.507 163.365C266.967 162.856 267.471 162.389 268.013 161.969C268.716 161.422 269.487 160.967 270.306 160.615C272.176 159.856 273.249 160.314 274.824 160.08Z" fill="url(#paint23_linear_37_712)"/>
<path d="M265.123 160.839C265.123 160.839 265.291 164.462 268.701 166.052C271.753 167.477 275.805 161.094 274.69 158.657C274.318 157.843 273.172 156.959 271.987 156.685C271.297 156.524 270.948 156.663 269.814 156.377C268.77 156.112 268.572 155.869 268.158 155.95C267.653 156.052 267.011 156.627 266.529 158.879C266.278 158.001 265.723 157.411 265.122 157.375C264.909 157.374 264.7 157.433 264.519 157.543C263.698 158.075 263.859 159.413 265.123 160.839Z" fill="url(#paint24_linear_37_712)"/>
<path d="M347.505 165.548C347.505 175.748 339.543 183.771 329.365 183.459C318.773 183.133 309.864 173.972 309.864 163.009C309.864 152.045 318.773 144.086 329.365 145.184C339.546 146.25 347.505 155.349 347.505 165.548Z" fill="url(#paint25_linear_37_712)"/>
<path d="M350.257 164.669C350.257 174.868 342.294 182.892 332.116 182.578C321.524 182.254 312.615 173.091 312.615 162.128C312.615 151.165 321.524 143.205 332.116 144.31C342.294 145.371 350.257 154.47 350.257 164.669Z" fill="url(#paint26_linear_37_712)"/>
<path d="M349.458 164.615C349.458 174.365 341.838 182.026 332.115 181.706C322.014 181.379 313.535 172.636 313.535 162.19C313.535 151.744 322.014 144.146 332.115 145.182C341.838 146.18 349.458 154.865 349.458 164.615Z" fill="url(#paint27_linear_37_712)"/>
<path d="M348.885 164.577C348.885 174.006 341.512 181.401 332.115 181.085C322.366 180.757 314.19 172.312 314.19 162.235C314.19 152.157 322.366 144.816 332.115 145.804C341.512 146.757 348.885 155.149 348.885 164.577Z" fill="url(#paint28_linear_37_712)"/>
<path d="M332.018 149.012C332.266 149.041 332.494 149.159 332.661 149.344C332.827 149.529 332.921 149.769 332.923 150.018V151.755C333.934 151.869 334.938 152.043 335.928 152.276C336.664 152.45 337.4 152.658 338.136 152.898C338.35 152.97 338.535 153.111 338.66 153.3C338.785 153.489 338.843 153.714 338.826 153.94L338.613 156.116C338.604 156.249 338.562 156.377 338.491 156.489C338.421 156.602 338.324 156.696 338.21 156.763C338.095 156.829 337.966 156.867 337.833 156.872C337.7 156.878 337.569 156.85 337.449 156.793C336.968 156.578 336.475 156.394 335.971 156.241C335.063 155.968 334.128 155.794 333.183 155.72L332.928 155.699V160.673C335.536 161.404 337.457 162.388 338.691 163.625C339.924 164.862 340.539 166.398 340.537 168.232C340.537 170.223 339.856 171.82 338.495 173.021C337.125 174.23 335.204 174.91 332.719 175.058V176.973C332.721 177.091 332.699 177.209 332.654 177.319C332.609 177.429 332.542 177.528 332.458 177.611C332.373 177.694 332.272 177.759 332.161 177.801C332.051 177.844 331.933 177.863 331.814 177.858H331.799C331.553 177.844 331.321 177.736 331.152 177.556C330.983 177.376 330.889 177.138 330.89 176.891V175.002L330.487 174.983C329.365 174.935 328.248 174.816 327.141 174.626C326.361 174.491 325.589 174.313 324.829 174.093C324.608 174.031 324.415 173.895 324.282 173.707C324.15 173.519 324.087 173.292 324.103 173.062L324.354 170.264C324.366 170.124 324.412 169.99 324.487 169.871C324.562 169.752 324.664 169.653 324.784 169.581C324.905 169.51 325.041 169.468 325.181 169.46C325.321 169.452 325.461 169.477 325.589 169.533C326.253 169.796 326.932 170.02 327.623 170.202C328.687 170.484 329.775 170.666 330.873 170.746L330.89 165.219C328.386 164.599 326.516 163.678 325.278 162.456C324.041 161.233 323.422 159.667 323.42 157.758C323.42 155.787 324.092 154.267 325.436 153.198C326.77 152.135 328.667 151.607 331.115 151.609V149.835C331.113 149.719 331.137 149.605 331.183 149.499C331.229 149.393 331.297 149.298 331.382 149.22C331.467 149.143 331.568 149.084 331.678 149.048C331.788 149.012 331.904 149 332.018 149.012ZM331.11 155.645C330.336 155.701 329.733 155.914 329.302 156.285C329.087 156.468 328.918 156.697 328.805 156.956C328.693 157.214 328.64 157.495 328.652 157.777C328.645 158.052 328.695 158.326 328.798 158.581C328.902 158.836 329.057 159.067 329.253 159.26C329.652 159.656 330.273 159.973 331.11 160.209V155.645ZM332.715 165.659V170.731C333.557 170.731 334.201 170.53 334.647 170.127C335.093 169.725 335.318 169.156 335.321 168.421C335.331 168.115 335.281 167.81 335.174 167.524C335.066 167.237 334.904 166.975 334.695 166.752C334.281 166.311 333.622 165.952 332.715 165.661V165.659Z" fill="url(#paint29_linear_37_712)"/>
<path style="mix-blend-mode:multiply" opacity="0.3" d="M329.081 166.885C329.647 161.281 334.79 158.908 334.118 153.758C333.705 150.58 331.301 147.902 328.618 145.812C320.477 146.667 314.19 153.411 314.19 162.24C314.19 172.317 322.366 180.762 332.115 181.09C333.041 181.119 333.967 181.073 334.886 180.952C331.013 177.09 328.594 171.701 329.081 166.885Z" fill="url(#paint30_linear_37_712)"/>
<path d="M348.862 53.1113C348.862 49.4648 345.888 46.3806 342.22 46.2204L247.077 42.075C242.954 41.8954 239.518 44.9021 239.518 48.7932V124.852C239.518 128.743 242.942 131.868 247.066 131.835L249.294 131.81L249.399 131.645L342.151 129.808C345.819 129.778 348.862 128.039 348.862 124.393V53.1113ZM265.642 59.2961C262.099 59.1759 259.216 56.3391 259.216 52.9607C259.216 49.5822 262.099 46.9624 265.642 47.1075C269.185 47.2525 272.021 50.0879 272.021 53.4415C272.021 56.7951 269.17 59.4163 265.642 59.2961ZM295.968 60.3283C292.549 60.2122 289.768 57.4266 289.768 54.1103C289.768 50.794 292.549 48.2156 295.968 48.3566C299.387 48.4975 302.125 51.2804 302.125 54.5746C302.125 57.8687 299.373 60.4444 295.968 60.3283ZM325.242 61.3245C321.94 61.2126 319.254 58.4781 319.254 55.2171C319.254 51.9561 321.94 49.4233 325.242 49.5587C328.543 49.6941 331.185 52.4287 331.185 55.6648C331.185 58.9009 328.529 61.4365 325.242 61.3245Z" fill="url(#paint31_linear_37_712)"/>
<path d="M350.85 66.3112V53.1097C350.843 51.35 350.158 49.6609 348.939 48.3938C347.72 47.1268 346.059 46.3794 344.304 46.3072L249.494 42.1771C247.763 42.1011 246.144 42.5585 244.874 43.4456C243.137 44.6574 242.002 46.5725 242.002 48.8138V66.3112H350.85ZM327.343 49.6456C330.622 49.7838 333.276 52.5086 333.276 55.7448C333.276 58.9809 330.625 61.5068 327.343 61.3962C324.061 61.2857 321.37 58.5539 321.37 55.2985C321.37 52.043 324.051 49.5102 327.343 49.6456ZM298.146 48.4448C301.541 48.583 304.287 51.3632 304.287 54.6559C304.287 57.9487 301.541 60.5174 298.146 60.4014C294.75 60.2853 291.959 57.5065 291.959 54.193C291.959 50.8795 294.736 48.3039 298.146 48.4448ZM267.898 47.2012C271.416 47.3463 274.261 50.1776 274.261 53.5284C274.261 56.8792 271.416 59.4935 267.898 59.3733C264.38 59.2531 261.487 56.4218 261.487 53.0489C261.487 49.676 264.365 47.0548 267.898 47.1999V47.2012Z" fill="url(#paint32_linear_37_712)"/>
<path d="M242.001 62.3359V124.831C242.001 128.715 245.229 131.845 249.341 131.81L344.248 131.039C346.001 131.027 347.678 130.322 348.915 129.078C350.151 127.833 350.846 126.15 350.849 124.394V65.7904L242.001 62.3359Z" fill="white"/>
<path d="M312.58 74.8288C312.586 74.6234 312.551 74.4188 312.478 74.2268C312.405 74.0347 312.295 73.859 312.154 73.7096C312.013 73.5603 311.844 73.4402 311.657 73.3562C311.469 73.2723 311.268 73.2261 311.062 73.2204L301.672 72.9772C300.775 72.9523 299.658 73.6363 299.658 74.5082V83.3212C299.658 84.1931 300.819 84.9213 301.716 84.9392L310.849 85.1175C311.734 85.1341 312.584 84.4459 312.584 83.5796L312.58 74.8288Z" fill="#BFC8D6"/>
<path d="M328.981 75.2487C328.971 74.8273 328.8 74.4258 328.502 74.1278C328.205 73.8298 327.804 73.6581 327.383 73.6486L318.601 73.4193C318.398 73.4126 318.195 73.4476 318.005 73.5222C317.816 73.5968 317.644 73.7093 317.499 73.8529C317.354 73.9965 317.241 74.1681 317.165 74.3573C317.089 74.5465 317.052 74.7492 317.057 74.953V83.6734C317.05 84.0885 317.209 84.4893 317.497 84.7878C317.785 85.0862 318.18 85.258 318.594 85.2652L327.415 85.4338C327.618 85.4397 327.821 85.4048 328.01 85.3312C328.2 85.2575 328.373 85.1467 328.519 85.005C328.666 84.8634 328.782 84.6939 328.862 84.5065C328.942 84.3191 328.984 84.1176 328.985 83.9139L328.981 75.2487Z" fill="#BFC8D6"/>
<path d="M345.383 75.6718C345.383 74.822 344.626 74.1145 343.774 74.0924L335.069 73.8575C334.207 73.834 333.454 74.5042 333.454 75.3595V83.9942C333.462 84.4119 333.632 84.8101 333.926 85.1055C334.221 85.4009 334.619 85.5706 335.036 85.5791L343.764 85.7505C344.615 85.767 345.383 85.0941 345.383 84.2457V75.6718Z" fill="#BFC8D6"/>
<path d="M312.58 90.8227C312.586 90.618 312.552 90.414 312.479 90.2226C312.406 90.0313 312.295 89.8565 312.154 89.7082C312.013 89.56 311.844 89.4413 311.656 89.3592C311.469 89.277 311.267 89.2329 311.062 89.2295L301.672 89.072C300.775 89.0568 299.658 89.7463 299.658 90.6182V99.4271C299.658 100.299 300.819 101.02 301.716 101.029L310.846 101.118C311.732 101.128 312.581 100.427 312.581 99.5666L312.58 90.8227Z" fill="#BFC8D6"/>
<path d="M328.98 91.0879C328.97 90.6686 328.798 90.2695 328.5 89.9749C328.202 89.6803 327.801 89.5131 327.383 89.5085L318.601 89.362C318.397 89.3585 318.195 89.3959 318.007 89.4721C317.818 89.5483 317.647 89.6617 317.503 89.8056C317.359 89.9494 317.245 90.1208 317.168 90.3095C317.092 90.4982 317.054 90.7004 317.057 90.9041V99.6259C317.053 99.8309 317.09 100.035 317.165 100.225C317.241 100.416 317.353 100.589 317.496 100.736C317.639 100.883 317.81 101 317.998 101.08C318.187 101.16 318.389 101.201 318.594 101.203L327.405 101.284C327.609 101.288 327.812 101.251 328.002 101.175C328.193 101.1 328.366 100.987 328.512 100.844C328.658 100.701 328.774 100.53 328.854 100.341C328.933 100.152 328.974 99.9496 328.975 99.7448L328.98 91.0879Z" fill="url(#paint33_linear_37_712)"/>
<path d="M345.383 91.3535C345.383 90.5037 344.626 89.8031 343.774 89.7893L335.069 89.636C334.207 89.6221 333.454 90.2978 333.454 91.1559V99.7906C333.461 100.207 333.631 100.604 333.926 100.898C334.222 101.191 334.62 101.357 335.036 101.36L343.764 101.449C344.615 101.458 345.383 100.78 345.383 99.9288V91.3535Z" fill="#BFC8D6"/>
<path d="M261.386 90.0115C261.386 89.1175 260.558 88.3755 259.616 88.3603L250.122 88.1917C249.907 88.1816 249.693 88.2153 249.492 88.291C249.29 88.3666 249.107 88.4825 248.952 88.6316C248.797 88.7807 248.674 88.9599 248.59 89.1582C248.507 89.3564 248.465 89.5697 248.466 89.7849V98.8659C248.462 99.0819 248.5 99.2966 248.58 99.4973C248.66 99.698 248.779 99.8807 248.93 100.035C249.081 100.188 249.262 100.31 249.461 100.393C249.661 100.476 249.874 100.517 250.09 100.516L259.67 100.617C260.612 100.626 261.389 99.9161 261.389 99.0235L261.386 90.0115Z" fill="#BFC8D6"/>
<path d="M278.783 90.2785C278.785 90.0663 278.746 89.8556 278.667 89.6586C278.588 89.4617 278.471 89.2824 278.322 89.1313C278.173 88.9801 277.996 88.86 277.801 88.778C277.605 88.696 277.395 88.6537 277.183 88.6535L267.681 88.4905C266.747 88.4753 265.857 89.1814 265.857 90.0726V99.0542C265.857 99.9454 266.785 100.678 267.719 100.687L277.101 100.78C278.022 100.788 278.781 100.078 278.781 99.1951L278.783 90.2785Z" fill="#BFC8D6"/>
<path d="M295.682 90.5684C295.683 90.1428 295.517 89.7337 295.219 89.4305C294.92 89.1274 294.514 88.9547 294.089 88.9504L284.662 88.7859C283.746 88.7694 282.758 89.463 282.758 90.3446V99.2432C282.758 100.125 283.769 100.852 284.689 100.861L293.961 100.961C294.866 100.97 295.687 100.277 295.687 99.4021L295.682 90.5684Z" fill="#BFC8D6"/>
<path d="M312.58 106.812C312.58 105.945 311.947 105.24 311.062 105.234L301.672 105.162C300.775 105.155 299.658 105.853 299.658 106.723V115.531C299.658 116.404 300.819 117.118 301.716 117.118H310.846C311.732 117.118 312.581 116.419 312.581 115.553L312.58 106.812Z" fill="#BFC8D6"/>
<path d="M328.981 106.927C328.972 106.509 328.8 106.111 328.501 105.818C328.202 105.525 327.801 105.361 327.383 105.362L318.601 105.299C318.397 105.297 318.195 105.336 318.006 105.414C317.817 105.491 317.646 105.606 317.502 105.751C317.358 105.896 317.244 106.069 317.168 106.258C317.092 106.448 317.054 106.651 317.057 106.855V115.577C317.053 115.781 317.09 115.985 317.165 116.175C317.241 116.364 317.354 116.537 317.497 116.683C317.64 116.828 317.811 116.944 318 117.022C318.188 117.1 318.39 117.14 318.594 117.139H327.415C327.62 117.14 327.823 117.101 328.013 117.023C328.203 116.946 328.376 116.832 328.522 116.687C328.667 116.543 328.783 116.371 328.863 116.182C328.942 115.993 328.984 115.789 328.985 115.584L328.981 106.927Z" fill="#BFC8D6"/>
<path d="M261.386 106.496C261.386 105.604 260.559 104.869 259.616 104.862L250.122 104.786C249.907 104.778 249.692 104.814 249.491 104.892C249.29 104.969 249.107 105.087 248.952 105.237C248.797 105.387 248.675 105.568 248.591 105.767C248.508 105.966 248.466 106.18 248.467 106.395V115.478C248.462 115.693 248.5 115.907 248.58 116.107C248.66 116.307 248.779 116.489 248.931 116.641C249.082 116.794 249.263 116.914 249.463 116.994C249.662 117.075 249.876 117.114 250.091 117.11L259.67 117.119C260.612 117.119 261.389 116.401 261.389 115.508L261.386 106.496Z" fill="#BFC8D6"/>
<path d="M278.783 106.597C278.786 106.385 278.747 106.175 278.668 105.979C278.589 105.783 278.471 105.604 278.322 105.454C278.173 105.304 277.996 105.186 277.8 105.105C277.604 105.025 277.395 104.985 277.184 104.987L267.681 104.914C266.747 104.914 265.857 105.622 265.857 106.511V115.493C265.857 116.383 266.785 117.108 267.719 117.11H277.101C278.022 117.11 278.781 116.393 278.781 115.51L278.783 106.597Z" fill="#BFC8D6"/>
<path d="M295.682 106.725C295.683 106.515 295.643 106.306 295.564 106.112C295.484 105.917 295.367 105.74 295.219 105.591C295.071 105.442 294.895 105.324 294.701 105.243C294.507 105.162 294.299 105.121 294.089 105.121L284.662 105.045C283.746 105.038 282.758 105.736 282.758 106.62V115.516C282.758 116.398 283.769 117.118 284.689 117.118L293.961 117.13C294.866 117.13 295.687 116.429 295.687 115.555L295.682 106.725Z" fill="#BFC8D6"/>
<path d="M267.303 30.8527C261.36 30.5514 256.441 35.3973 255.965 42.4596L260.986 42.6779C261.4 38.4566 264.126 35.3324 267.303 35.4844C270.738 35.6502 273.628 39.6463 273.628 44.2365C273.628 48.8268 270.731 52.5839 267.303 52.4526C265.51 52.3849 263.868 51.2656 262.697 49.5619C262.016 50.4988 260.845 52.6557 261.954 55.3308C263.542 56.3962 265.394 57.0016 267.303 57.0802C273.512 57.2999 278.533 51.6429 278.533 44.448C278.533 37.253 273.514 31.1663 267.303 30.8527Z" fill="#BFC8D6"/>
<path d="M297.519 32.3671C291.781 32.0769 287.033 36.8412 286.575 43.7833L291.421 43.9933C291.815 39.848 294.456 36.7749 297.519 36.9214C300.83 37.0803 303.626 41.0059 303.626 45.516C303.626 50.0262 300.834 53.7196 297.519 53.5939C295.793 53.5276 294.208 52.4291 293.072 50.7557C292.415 51.6774 291.286 53.7956 292.356 56.421C293.883 57.4649 295.672 58.059 297.519 58.1358C303.515 58.3527 308.365 52.7842 308.365 45.7205C308.365 38.6569 303.515 32.671 297.519 32.3671Z" fill="#BFC8D6"/>
<path d="M326.79 33.8661C321.252 33.5898 316.67 38.2698 316.227 45.0889L320.903 45.2934C321.285 41.2185 323.829 38.198 326.79 38.3403C329.99 38.4937 332.684 42.3474 332.684 46.7788C332.684 51.2102 329.99 54.8415 326.79 54.7199C325.123 54.6563 323.589 53.5771 322.496 51.9342C321.863 52.8406 320.773 54.923 321.807 57.5041C323.276 58.5264 325.004 59.1096 326.791 59.1858C332.578 59.3903 337.257 53.9226 337.257 46.9764C337.257 40.0302 332.577 34.159 326.79 33.8661Z" fill="#BFC8D6"/>
<g style="mix-blend-mode:multiply" opacity="0.3">
<path d="M350.85 121.997V124.396C350.859 126.146 350.175 127.828 348.948 129.074C347.721 130.319 346.051 131.027 344.304 131.042L249.399 131.811C245.289 131.845 242.002 128.715 242.002 124.833V48.8141C242.001 47.7493 242.259 46.7002 242.755 45.758C243.25 44.8157 243.967 44.0088 244.845 43.4072C248.62 44.7669 253.48 48.5612 255.969 58.8444C260.359 76.965 264.137 84.703 281.063 84.323C291.883 84.0757 300.179 84.5745 305.346 89.3499C308.122 91.9103 310.011 95.7061 310.906 101.308C311.432 104.581 313.779 106.668 317.129 108.199C320.41 109.702 324.673 110.671 329.11 111.715C337.259 113.626 346.376 115.793 350.85 121.997Z" fill="#BFC8D6"/>
</g>
<path d="M321.257 98.9588C321.166 98.9665 321.076 98.9437 321 98.8939L318.885 97.501C318.838 97.4676 318.798 97.425 318.768 97.3759C318.737 97.3267 318.717 97.272 318.708 97.2149C318.698 97.1578 318.701 97.0994 318.714 97.0432C318.728 96.987 318.753 96.9341 318.787 96.8875C318.851 96.7891 318.951 96.7195 319.065 96.6937C319.18 96.6679 319.3 96.6878 319.4 96.7494L321.193 97.9349L326.319 91.8551C326.354 91.8102 326.398 91.7728 326.448 91.745C326.498 91.7172 326.553 91.6996 326.61 91.6932C326.666 91.6867 326.724 91.6916 326.778 91.7076C326.833 91.7235 326.884 91.7502 326.929 91.786C327.013 91.865 327.064 91.9741 327.069 92.0899C327.074 92.2056 327.034 92.3188 326.956 92.405L321.576 98.7875C321.496 98.8845 321.381 98.9461 321.257 98.9588Z" fill="white"/>
<path d="M381.829 126.276C381.829 138.122 372.585 147.441 360.758 147.078C348.456 146.699 338.108 136.058 338.108 123.325C338.108 110.592 348.456 101.354 360.758 102.63C372.579 103.862 381.829 114.43 381.829 126.276Z" fill="url(#paint34_linear_37_712)"/>
<path d="M385.023 125.256C385.023 137.102 375.779 146.42 363.952 146.057C351.651 145.678 341.303 135.037 341.303 122.304C341.303 109.571 351.651 100.326 363.952 101.609C375.774 102.842 385.023 113.41 385.023 125.256Z" fill="url(#paint35_linear_37_712)"/>
<path d="M384.096 125.189C384.096 136.519 375.245 145.406 363.953 145.039C352.225 144.659 342.373 134.505 342.373 122.371C342.373 110.238 352.222 101.413 363.953 102.612C375.245 103.78 384.096 113.868 384.096 125.189Z" fill="url(#paint36_linear_37_712)"/>
<path d="M383.43 125.147C383.43 136.098 374.867 144.687 363.952 144.321C352.628 143.94 343.133 134.132 343.133 122.425C343.133 110.719 352.628 102.195 363.952 103.343C374.867 104.451 383.43 114.197 383.43 125.147Z" fill="url(#paint37_linear_37_712)"/>
<path d="M363.84 107.07C364.127 107.104 364.392 107.241 364.585 107.456C364.779 107.671 364.887 107.949 364.891 108.239V110.256C366.065 110.388 367.23 110.59 368.38 110.861C369.24 111.065 370.093 111.306 370.94 111.584C371.189 111.667 371.403 111.831 371.548 112.05C371.694 112.269 371.762 112.531 371.741 112.793L371.494 115.322C371.483 115.475 371.434 115.624 371.353 115.755C371.271 115.885 371.159 115.994 371.026 116.072C370.893 116.149 370.743 116.193 370.589 116.199C370.435 116.205 370.282 116.174 370.143 116.108C369.585 115.859 369.011 115.645 368.426 115.468C367.371 115.151 366.285 114.948 365.188 114.862L364.891 114.837V120.611C367.921 121.459 370.152 122.602 371.584 124.039C373.016 125.476 373.731 127.26 373.728 129.39C373.728 131.703 372.938 133.556 371.358 134.951C369.765 136.356 367.534 137.145 364.65 137.317V139.543C364.652 139.681 364.626 139.817 364.573 139.945C364.521 140.072 364.443 140.187 364.345 140.283C364.246 140.38 364.129 140.455 364.001 140.504C363.873 140.554 363.736 140.576 363.598 140.571H363.579C363.294 140.555 363.026 140.431 362.83 140.224C362.633 140.016 362.524 139.742 362.523 139.456V137.259L362.056 137.238C360.753 137.183 359.454 137.045 358.169 136.823C357.264 136.667 356.367 136.461 355.484 136.206C355.227 136.134 355.003 135.976 354.85 135.757C354.696 135.539 354.623 135.274 354.643 135.008L354.932 131.758C354.947 131.596 355 131.439 355.087 131.301C355.174 131.163 355.293 131.048 355.433 130.966C355.573 130.883 355.731 130.834 355.893 130.825C356.056 130.815 356.218 130.844 356.367 130.909C357.137 131.213 357.924 131.472 358.724 131.683C359.96 132.01 361.225 132.221 362.5 132.315L362.518 125.892C359.61 125.171 357.437 124.103 356.002 122.689C354.566 121.275 353.847 119.459 353.844 117.24C353.844 114.952 354.626 113.188 356.189 111.947C357.739 110.715 359.943 110.101 362.786 110.103V108.042C362.782 107.906 362.807 107.771 362.86 107.646C362.913 107.521 362.992 107.408 363.092 107.316C363.192 107.224 363.31 107.154 363.439 107.112C363.568 107.069 363.705 107.055 363.84 107.07ZM362.786 114.777C361.887 114.843 361.186 115.09 360.684 115.519C360.436 115.732 360.239 115.999 360.108 116.299C359.977 116.599 359.916 116.925 359.93 117.252C359.922 117.571 359.98 117.888 360.1 118.184C360.22 118.48 360.4 118.748 360.628 118.971C361.088 119.432 361.807 119.8 362.786 120.076V114.777ZM364.656 126.408V132.298C365.633 132.298 366.383 132.065 366.907 131.598C367.43 131.131 367.691 130.47 367.689 129.615C367.711 128.899 367.449 128.204 366.962 127.68C366.471 127.163 365.702 126.739 364.656 126.408Z" fill="url(#paint38_linear_37_712)"/>
<path style="mix-blend-mode:multiply" opacity="0.3" d="M360.428 127.83C361.086 121.32 367.059 118.565 366.279 112.576C365.799 108.885 363.007 105.776 359.891 103.347C350.446 104.339 343.133 112.177 343.133 122.425C343.133 134.13 352.628 143.938 363.952 144.32C365.027 144.356 366.103 144.303 367.169 144.162C362.673 139.682 359.862 133.422 360.428 127.83Z" fill="url(#paint39_linear_37_712)"/>
</g>
<defs>
<linearGradient id="paint0_linear_37_712" x1="263.142" y1="299.515" x2="737.204" y2="157.39" gradientUnits="userSpaceOnUse">
<stop stop-color="#AA80F9"/>
<stop offset="1" stop-color="#6165D7"/>
</linearGradient>
<linearGradient id="paint1_linear_37_712" x1="150.488" y1="204.43" x2="-126.102" y2="611.672" gradientUnits="userSpaceOnUse">
<stop stop-color="#FFC444"/>
<stop offset="1" stop-color="#F36F56"/>
</linearGradient>
<linearGradient id="paint2_linear_37_712" x1="82.9381" y1="241.896" x2="360.895" y2="197.98" gradientUnits="userSpaceOnUse">
<stop stop-color="#444B8C"/>
<stop offset="1" stop-color="#26264F"/>
</linearGradient>
<linearGradient id="paint3_linear_37_712" x1="186.799" y1="177.659" x2="-87.5788" y2="745.921" gradientUnits="userSpaceOnUse">
<stop stop-color="#E38DDD"/>
<stop offset="1" stop-color="#9571F6"/>
</linearGradient>
<linearGradient id="paint4_linear_37_712" x1="256086" y1="265184" x2="-414174" y2="1.12713e+06" gradientUnits="userSpaceOnUse">
<stop stop-color="#E38DDD"/>
<stop offset="1" stop-color="#9571F6"/>
</linearGradient>
<linearGradient id="paint5_linear_37_712" x1="147.524" y1="169.654" x2="167.675" y2="169.654" gradientUnits="userSpaceOnUse">
<stop stop-color="#FF9085"/>
<stop offset="1" stop-color="#FB6FBB"/>
</linearGradient>
<linearGradient id="paint6_linear_37_712" x1="27589" y1="29389.2" x2="30531.8" y2="29389.2" gradientUnits="userSpaceOnUse">
<stop stop-color="#FF9085"/>
<stop offset="1" stop-color="#FB6FBB"/>
</linearGradient>
<linearGradient id="paint7_linear_37_712" x1="33486.6" y1="29389.2" x2="36429.4" y2="29389.2" gradientUnits="userSpaceOnUse">
<stop stop-color="#FF9085"/>
<stop offset="1" stop-color="#FB6FBB"/>
</linearGradient>
<linearGradient id="paint8_linear_37_712" x1="105401" y1="70466.8" x2="468717" y2="70466.8" gradientUnits="userSpaceOnUse">
<stop stop-color="#FF9085"/>
<stop offset="1" stop-color="#FB6FBB"/>
</linearGradient>
<linearGradient id="paint9_linear_37_712" x1="39001.8" y1="13310.5" x2="41885" y2="13310.5" gradientUnits="userSpaceOnUse">
<stop stop-color="#FF9085"/>
<stop offset="1" stop-color="#FB6FBB"/>
</linearGradient>
<linearGradient id="paint10_linear_37_712" x1="312.632" y1="292.221" x2="255.579" y2="292.221" gradientUnits="userSpaceOnUse">
<stop stop-color="#444B8C"/>
<stop offset="1" stop-color="#3E4177"/>
</linearGradient>
<linearGradient id="paint11_linear_37_712" x1="297.93" y1="390.971" x2="276.635" y2="390.971" gradientUnits="userSpaceOnUse">
<stop stop-color="#311944"/>
<stop offset="1" stop-color="#6B3976"/>
</linearGradient>
<linearGradient id="paint12_linear_37_712" x1="273.7" y1="353.599" x2="281.17" y2="400.297" gradientUnits="userSpaceOnUse">
<stop stop-color="#311944"/>
<stop offset="1" stop-color="#A03976"/>
</linearGradient>
<linearGradient id="paint13_linear_37_712" x1="135531" y1="202863" x2="157554" y2="202863" gradientUnits="userSpaceOnUse">
<stop stop-color="#444B8C"/>
<stop offset="1" stop-color="#3E4177"/>
</linearGradient>
<linearGradient id="paint14_linear_37_712" x1="135327" y1="310955" x2="152577" y2="310955" gradientUnits="userSpaceOnUse">
<stop stop-color="#444B8C"/>
<stop offset="1" stop-color="#3E4177"/>
</linearGradient>
<linearGradient id="paint15_linear_37_712" x1="-328941" y1="117360" x2="-302462" y2="214905" gradientUnits="userSpaceOnUse">
<stop stop-color="#FFC444"/>
<stop offset="1" stop-color="#F36F56"/>
</linearGradient>
<linearGradient id="paint16_linear_37_712" x1="-53425.7" y1="30091.3" x2="-54231.6" y2="32915.6" gradientUnits="userSpaceOnUse">
<stop stop-color="#FFC444"/>
<stop offset="1" stop-color="#F36F56"/>
</linearGradient>
<linearGradient id="paint17_linear_37_712" x1="-231868" y1="106094" x2="-203308" y2="187297" gradientUnits="userSpaceOnUse">
<stop stop-color="#FFC444"/>
<stop offset="1" stop-color="#F36F56"/>
</linearGradient>
<linearGradient id="paint18_linear_37_712" x1="-196366" y1="88546.7" x2="-173531" y2="153725" gradientUnits="userSpaceOnUse">
<stop stop-color="#FFC444"/>
<stop offset="1" stop-color="#F36F56"/>
</linearGradient>
<linearGradient id="paint19_linear_37_712" x1="274.813" y1="202.6" x2="253.391" y2="241.166" gradientUnits="userSpaceOnUse">
<stop offset="0.49" stop-color="#EBEFF2"/>
<stop offset="1" stop-color="white"/>
</linearGradient>
<linearGradient id="paint20_linear_37_712" x1="150190" y1="54344.6" x2="145368" y2="46080.2" gradientUnits="userSpaceOnUse">
<stop offset="0.49" stop-color="#EBEFF2"/>
<stop offset="1" stop-color="white"/>
</linearGradient>
<linearGradient id="paint21_linear_37_712" x1="79087.2" y1="13784.9" x2="78888.7" y2="17206.4" gradientUnits="userSpaceOnUse">
<stop stop-color="#311944"/>
<stop offset="1" stop-color="#A03976"/>
</linearGradient>
<linearGradient id="paint22_linear_37_712" x1="26357.9" y1="14735.7" x2="27063.8" y2="14735.7" gradientUnits="userSpaceOnUse">
<stop stop-color="#311944"/>
<stop offset="1" stop-color="#A03976"/>
</linearGradient>
<linearGradient id="paint23_linear_37_712" x1="-36922.7" y1="13757.7" x2="-35137.7" y2="12078.4" gradientUnits="userSpaceOnUse">
<stop stop-color="#311944"/>
<stop offset="1" stop-color="#6B3976"/>
</linearGradient>
<linearGradient id="paint24_linear_37_712" x1="31685.1" y1="11039.5" x2="31405.2" y2="11776.2" gradientUnits="userSpaceOnUse">
<stop stop-color="#311944"/>
<stop offset="1" stop-color="#A03976"/>
</linearGradient>
<linearGradient id="paint25_linear_37_712" x1="322.233" y1="166.347" x2="300.275" y2="173.383" gradientUnits="userSpaceOnUse">
<stop stop-color="#FCB148"/>
<stop offset="0.05" stop-color="#FDBA46"/>
<stop offset="0.14" stop-color="#FFC244"/>
<stop offset="0.32" stop-color="#FFC444"/>
<stop offset="0.48" stop-color="#FDB946"/>
<stop offset="0.78" stop-color="#F99C4D"/>
<stop offset="0.87" stop-color="#F8924F"/>
<stop offset="1" stop-color="#F8924F"/>
</linearGradient>
<linearGradient id="paint26_linear_37_712" x1="339.994" y1="144.462" x2="320.346" y2="187.741" gradientUnits="userSpaceOnUse">
<stop stop-color="#FFDB44"/>
<stop offset="1" stop-color="#FEEF06"/>
</linearGradient>
<linearGradient id="paint27_linear_37_712" x1="87899" y1="50559.6" x2="86876.6" y2="45082.2" gradientUnits="userSpaceOnUse">
<stop stop-color="#FCB148"/>
<stop offset="0.05" stop-color="#FDBA46"/>
<stop offset="0.14" stop-color="#FFC244"/>
<stop offset="0.32" stop-color="#FFC444"/>
<stop offset="0.48" stop-color="#FDB946"/>
<stop offset="0.78" stop-color="#F99C4D"/>
<stop offset="0.87" stop-color="#F8924F"/>
<stop offset="1" stop-color="#F8924F"/>
</linearGradient>
<linearGradient id="paint28_linear_37_712" x1="82889.6" y1="40267.2" x2="86935.3" y2="48689.3" gradientUnits="userSpaceOnUse">
<stop stop-color="#FCB148"/>
<stop offset="0.05" stop-color="#FDBA46"/>
<stop offset="0.14" stop-color="#FFC244"/>
<stop offset="0.32" stop-color="#FFC444"/>
<stop offset="0.48" stop-color="#FDB946"/>
<stop offset="0.78" stop-color="#F99C4D"/>
<stop offset="0.87" stop-color="#F8924F"/>
<stop offset="1" stop-color="#F8924F"/>
</linearGradient>
<linearGradient id="paint29_linear_37_712" x1="40984.2" y1="31378.3" x2="43444.9" y2="36850.1" gradientUnits="userSpaceOnUse">
<stop stop-color="#FFDB44"/>
<stop offset="1" stop-color="#FEEF06"/>
</linearGradient>
<linearGradient id="paint30_linear_37_712" x1="48882" y1="40709.5" x2="53919.3" y2="46981.2" gradientUnits="userSpaceOnUse">
<stop stop-color="#FCB148"/>
<stop offset="0.05" stop-color="#FDBA46"/>
<stop offset="0.14" stop-color="#FFC244"/>
<stop offset="0.32" stop-color="#FFC444"/>
<stop offset="0.48" stop-color="#FDB946"/>
<stop offset="0.78" stop-color="#F99C4D"/>
<stop offset="0.87" stop-color="#F8924F"/>
<stop offset="1" stop-color="#F8924F"/>
</linearGradient>
<linearGradient id="paint31_linear_37_712" x1="239.518" y1="86.9523" x2="348.862" y2="86.9523" gradientUnits="userSpaceOnUse">
<stop stop-color="#311944"/>
<stop offset="1" stop-color="#893976"/>
</linearGradient>
<linearGradient id="paint32_linear_37_712" x1="191162" y1="9518.97" x2="277035" y2="9518.97" gradientUnits="userSpaceOnUse">
<stop stop-color="#FF9085"/>
<stop offset="1" stop-color="#FB6FBB"/>
</linearGradient>
<linearGradient id="paint33_linear_37_712" x1="27717.4" y1="8314.35" x2="28748.3" y2="8314.35" gradientUnits="userSpaceOnUse">
<stop stop-color="#FF9085"/>
<stop offset="1" stop-color="#FB6FBB"/>
</linearGradient>
<linearGradient id="paint34_linear_37_712" x1="112031" y1="41137.9" x2="103923" y2="43689.9" gradientUnits="userSpaceOnUse">
<stop stop-color="#FCB148"/>
<stop offset="0.05" stop-color="#FDBA46"/>
<stop offset="0.14" stop-color="#FFC244"/>
<stop offset="0.32" stop-color="#FFC444"/>
<stop offset="0.48" stop-color="#FDB946"/>
<stop offset="0.78" stop-color="#F99C4D"/>
<stop offset="0.87" stop-color="#F8924F"/>
<stop offset="1" stop-color="#F8924F"/>
</linearGradient>
<linearGradient id="paint35_linear_37_712" x1="118570" y1="32938.2" x2="111122" y2="49054.2" gradientUnits="userSpaceOnUse">
<stop stop-color="#FFDB44"/>
<stop offset="1" stop-color="#FEEF06"/>
</linearGradient>
<linearGradient id="paint36_linear_37_712" x1="111906" y1="47795.7" x2="110527" y2="40406.2" gradientUnits="userSpaceOnUse">
<stop stop-color="#FCB148"/>
<stop offset="0.05" stop-color="#FDBA46"/>
<stop offset="0.14" stop-color="#FFC244"/>
<stop offset="0.32" stop-color="#FFC444"/>
<stop offset="0.48" stop-color="#FDB946"/>
<stop offset="0.78" stop-color="#F99C4D"/>
<stop offset="0.87" stop-color="#F8924F"/>
<stop offset="1" stop-color="#F8924F"/>
</linearGradient>
<linearGradient id="paint37_linear_37_712" x1="105372" y1="34599.2" x2="110830" y2="45960.8" gradientUnits="userSpaceOnUse">
<stop stop-color="#FCB148"/>
<stop offset="0.05" stop-color="#FDBA46"/>
<stop offset="0.14" stop-color="#FFC244"/>
<stop offset="0.32" stop-color="#FFC444"/>
<stop offset="0.48" stop-color="#FDB946"/>
<stop offset="0.78" stop-color="#F99C4D"/>
<stop offset="0.87" stop-color="#F8924F"/>
<stop offset="1" stop-color="#F8924F"/>
</linearGradient>
<linearGradient id="paint38_linear_37_712" x1="52075.3" y1="26227.6" x2="55394.4" y2="33608.8" gradientUnits="userSpaceOnUse">
<stop stop-color="#FFDB44"/>
<stop offset="1" stop-color="#FEEF06"/>
</linearGradient>
<linearGradient id="paint39_linear_37_712" x1="62061.8" y1="35245.8" x2="68857.2" y2="43705.7" gradientUnits="userSpaceOnUse">
<stop stop-color="#FCB148"/>
<stop offset="0.05" stop-color="#FDBA46"/>
<stop offset="0.14" stop-color="#FFC244"/>
<stop offset="0.32" stop-color="#FFC444"/>
<stop offset="0.48" stop-color="#FDB946"/>
<stop offset="0.78" stop-color="#F99C4D"/>
<stop offset="0.87" stop-color="#F8924F"/>
<stop offset="1" stop-color="#F8924F"/>
</linearGradient>
<clipPath id="clip0_37_712">
<rect width="402" height="405" fill="white"/>
</clipPath>
</defs>
</svg>
